<svg width="173" height="38" viewBox="0 0 173 38" fill="none" xmlns="http://www.w3.org/2000/svg">
<g clip-path="url(#clip0_45_786)">
<path d="M57.1745 30.7641C60.6914 30.7641 63.7581 29.0511 65.6218 26.4656L62.4354 24.1207C61.2634 25.8038 59.5195 26.826 57.2953 26.826C53.5379 26.826 50.8326 23.8202 50.8326 20.1227C50.8326 16.4251 53.5678 13.4792 57.3253 13.4792C59.5195 13.4792 61.2634 14.5014 62.4354 16.1546L65.6218 13.8396C63.7581 11.2241 60.6914 9.54106 57.1745 9.54106C51.3127 9.54106 46.6528 14.2908 46.6528 20.1227C46.6528 25.9545 51.3127 30.7641 57.1745 30.7641ZM74.169 30.7641C78.167 30.7641 81.7139 27.8782 81.7139 23.4599C81.7139 19.0415 78.167 16.1246 74.169 16.1246C70.1709 16.1246 66.6241 19.0106 66.6241 23.4599C66.6241 27.9091 70.1709 30.7641 74.169 30.7641ZM74.169 27.0965C72.2154 27.0965 70.6221 25.6231 70.6221 23.4589C70.6221 21.2946 72.2154 19.7912 74.169 19.7912C76.1226 19.7912 77.7158 21.2647 77.7158 23.4589C77.7158 25.653 76.1226 27.0965 74.169 27.0965ZM92.2106 16.1246C90.828 16.1246 88.6029 16.9362 88.0019 18.8299V16.485H84.0638V30.4936H88.0019V23.3091C88.0019 20.7536 89.7459 20.0029 91.1584 20.0029C92.571 20.0029 93.8338 20.9951 93.8338 23.2193V30.4936H97.7719V22.798C97.8019 18.5893 95.8782 16.1246 92.2106 16.1246ZM108.9 16.485H105.924V11.3449H101.986V16.485H99.43V19.5207H101.986V30.4926H105.924V19.5207H108.9V16.485ZM112.668 13.9903C114.051 13.9903 115.163 12.9382 115.163 11.6155C115.163 10.2928 114.051 9.27053 112.668 9.27053C111.285 9.27053 110.173 10.2928 110.173 11.6155C110.173 12.9382 111.315 13.9903 112.668 13.9903ZM110.714 30.4936H114.653V16.486H110.714V30.4946V30.4936ZM126.006 16.1246C124.623 16.1246 122.398 16.9362 121.797 18.8299V16.485H117.859V30.4936H121.797V23.3091C121.797 20.7536 123.541 20.0029 124.954 20.0029C126.366 20.0029 127.629 20.9951 127.629 23.2193V30.4936H131.567V22.798C131.597 18.5893 129.673 16.1246 126.006 16.1246ZM144.193 16.485V23.6695C144.193 26.1941 142.449 26.9458 141.037 26.9458C139.624 26.9458 138.361 25.9535 138.361 23.7593V16.485H134.423V24.1806C134.393 28.3893 136.317 30.824 139.985 30.824C141.367 30.824 143.592 30.0424 144.193 28.2086V30.4936H148.131V16.486H144.193V16.485ZM161.899 16.485V18.1681C160.907 16.7555 159.013 16.1536 157.39 16.1536C153.783 16.1536 150.506 18.9497 150.506 23.4579C150.506 27.966 153.783 30.7622 157.39 30.7622C158.954 30.7622 160.907 30.1313 161.899 28.7477V30.4916H165.838V16.486H161.899V16.485ZM158.142 27.0965C156.158 27.0965 154.504 25.5033 154.504 23.4589C154.504 21.4144 156.157 19.8511 158.142 19.8511C159.976 19.8511 161.78 21.2936 161.78 23.4589C161.78 25.6241 160.067 27.0965 158.142 27.0965ZM169.062 30.4936H173V9H169.062V30.4936Z" fill="#333333"/>
<mask id="mask0_45_786" style="mask-type:alpha" maskUnits="userSpaceOnUse" x="0" y="1" width="37" height="37">
<path fill-rule="evenodd" clip-rule="evenodd" d="M4.30966 8.88424V30.0042L17.8339 20.2962L21.1796 22.6425L3.49165 35.3382L1.31306 36.9016L0.5 37.4849V36.4686V33.7452V5.18976V2.4982V1.49414L1.30874 2.06133L3.47623 3.5814C11.6612 9.31869 19.8458 15.0556 28.0303 20.7933L32.7038 24.07V14.3687L27.1331 18.371C26.0177 17.5899 24.9031 16.808 23.7881 16.026L33.5219 9.03459L35.7005 7.47034L36.5134 6.88613V7.9032V10.6276V27.765V30.4557V31.4594L35.7046 30.8927L33.5371 29.3731C23.7946 22.5439 14.0518 15.7143 4.30966 8.88424Z" fill="white"/>
</mask>
<g mask="url(#mask0_45_786)">
<path fill-rule="evenodd" clip-rule="evenodd" d="M4.30966 8.88423V21.2347C4.30966 24.8997 8.45644 27.0276 11.4338 24.8904L16.7224 21.0942C17.3882 20.6163 18.2833 20.6113 18.9542 21.0819C20.0419 21.8445 20.0506 23.4528 18.9715 24.2274L3.49165 35.3382L1.31306 36.9016C0.973186 37.1454 0.5 36.9025 0.5 36.4842V36.4686V33.7452V5.18974V2.49819V2.48193C0.5 2.06608 0.968279 1.82254 1.30874 2.06131L3.47623 3.58138C11.6612 9.31867 19.8458 15.0556 28.0303 20.7933L28.7602 21.3051C30.4205 22.4691 32.7038 21.2814 32.7038 19.2537C32.7038 17.2126 30.3943 16.0281 28.7366 17.2189L28.244 17.5728C27.5786 18.0508 26.6839 18.0564 26.0129 17.5861C24.9253 16.8237 24.9163 15.2157 25.9951 14.4409L33.5219 9.03457L35.7005 7.47033C36.0401 7.22626 36.5134 7.46895 36.5134 7.88713V7.90318V10.6276V27.765V30.4557V30.4717C36.5134 30.8877 36.0451 31.1313 35.7046 30.8926L33.5371 29.3731C23.7946 22.5439 14.0518 15.7143 4.30966 8.88423Z" fill="url(#paint0_linear_45_786)"/>
</g>
</g>
<defs>
<linearGradient id="paint0_linear_45_786" x1="30.9086" y1="61.6852" x2="55.5176" y2="42.4354" gradientUnits="userSpaceOnUse">
<stop stop-color="#00FFA9"/>
<stop offset="1" stop-color="#00F9FB"/>
</linearGradient>
<clipPath id="clip0_45_786">
<rect width="172.5" height="37.4758" fill="white" transform="translate(0.5)"/>
</clipPath>
</defs>
</svg>
